:FULLY-SPECIFIED
:FORCE-ALL-JOINTS-BE-3DOF
:DEGREES
1631
root -14.8391 14.5691 19.3658 697.995 -70.9009 380.715
lfemur 6.09436 -9.75332 -11.9266
ltibia 36.3731 0 0
lfoot -22.343 27.4945 0
ltoes -43.5786 0 0
rfemur -51.4448 -14.469 8.3946
rtibia 64.7787 0 0
rfoot -7.01034 9.48978 0
rtoes 1.94547 0 0
lowerback 13.3945 3.84711 -7.6514
upperback -0.32964 3.8452 -0.327727
thorax -8.36718 2.16384 3.18055
lowerneck 0.436239 -12.5322 -12.438
upperneck 3.49567 -17.1498 9.91088
head 2.95584 -8.58561 4.20797
lclavicle -4.17966e-16 -1.24023e-14 0
lhumerus -68.4267 -16.4428 103.046
lradius 102.002 0 0
lwrist 51.4923 0 0
lhand -1.76776 50.7662 0
lfingers 7.12502 0 0
lthumb 23.8286 78.5599 0
rclavicle -4.17966e-16 -1.24023e-14 0
rhumerus 41.2347 -1.8034 -56.5861
rradius 24.4824 0 0
rwrist 15.8535 0 0
rhand -18.0062 -38.002 0
rfingers 7.12502 0 0
rthumb 8.25491 -67.6925 0
1632
root -14.8621 14.5686 19.3706 697.928 -70.9544 380.936
lfemur 6.34918 -9.80706 -12.0113
ltibia 35.9142 0 0
lfoot -22.2478 27.5963 0
ltoes -43.5478 0 0
rfemur -51.5674 -14.5018 8.40609
rtibia 65.0074 0 0
rfoot -7.29218 9.4597 0
rtoes 1.94718 0 0
lowerback 13.3715 3.83744 -7.65332
upperback -0.356088 3.83549 -0.308488
thorax -8.38311 2.16125 3.20495
lowerneck 0.487209 -12.5316 -12.4335
upperneck 3.47131 -17.1535 9.91166
head 2.94173 -8.58903 4.21138
lclavicle 1.92691e-15 -1.17362e-14 0
lhumerus -68.3979 -16.5365 103.058
lradius 101.955 0 0
lwrist 51.5563 0 0
lhand -3.0536 50.4826 0
lfingers 7.12502 0 0
lthumb 22.5958 78.432 0
rclavicle 1.92691e-15 -1.17362e-14 0
rhumerus 41.2584 -1.82193 -56.752
rradius 24.5282 0 0
rwrist 16.1021 0 0
rhand -17.8547 -37.7134 0
rfingers 7.12502 0 0
rthumb 8.40099 -67.3967 0
1633
root -14.8851 14.5681 19.3753 697.985 -71.0044 381.044
lfemur 6.65524 -9.88834 -12.093
ltibia 35.4042 0 0
lfoot -22.1505 27.7193 0
ltoes -43.5177 0 0
rfemur -51.6966 -14.5356 8.41032
rtibia 65.2233 0 0
rfoot -7.59019 9.45128 0
rtoes 1.95994 0 0
lowerback 13.3424 3.83189 -7.65508
upperback -0.384027 3.83164 -0.290892
thorax -8.39821 2.16144 3.22607
lowerneck 0.548238 -12.5417 -12.4371
upperneck 3.44509 -17.1729 9.92444
head 2.92757 -8.60025 4.21924
lclavicle 4.45838e-15 -1.10259e-14 0
lhumerus -68.4421 -16.6308 103.094
lradius 101.954 0 0
lwrist 51.6748 0 0
lhand -4.41735 50.1947 0
lfingers 7.12502 0 0
lthumb 21.2883 78.3096 0
rclavicle 4.45838e-15 -1.10259e-14 0
rhumerus 41.3818 -1.88059 -56.8878
rradius 24.4654 0 0
rwrist 16.4388 0 0
rhand -17.7242 -37.418 0
rfingers 7.12502 0 0
rthumb 8.527 -67.0976 0
1634
root -14.9081 14.5676 19.3801 698.176 -71.0504 381.029
lfemur 7.01598 -9.9993 -12.1711
ltibia 34.8404 0 0
lfoot -22.0512 27.8647 0
ltoes -43.4885 0 0
rfemur -51.8327 -14.5705 8.40665
rtibia 65.4245 0 0
rfoot -7.90476 9.46643 0
rtoes 1.98468 0 0
lowerback 13.3069 3.83083 -7.65665
upperback -0.413495 3.83417 -0.275142
thorax -8.41237 2.16463 3.24356
lowerneck 0.619997 -12.5634 -12.4496
upperneck 3.41692 -17.209 9.95022
head 2.91341 -8.61992 4.23192
lclavicle 7.18417e-15 -1.027e-14 0
lhumerus -68.5656 -16.7255 103.158
lradius 102.005 0 0
lwrist 51.8521 0 0
lhand -5.86117 49.903 0
lfingers 7.12502 0 0
lthumb 19.9041 78.1937 0
rclavicle 7.18417e-15 -1.027e-14 0
rhumerus 41.6133 -1.98268 -56.9904
rradius 24.2846 0 0
rwrist 16.87 0 0
rhand -17.617 -37.1163 0
rfingers 7.12502 0 0
rthumb 8.63073 -66.7956 0
1635
root -14.9311 14.5671 19.3848 698.511 -71.0918 380.88
lfemur 7.43484 -10.1421 -12.2453
ltibia 34.22 0 0
lfoot -21.9502 28.0341 0
ltoes -43.4602 0 0
rfemur -51.9757 -14.6066 8.39441
rtibia 65.6092 0 0
rfoot -8.2363 9.50709 0
rtoes 2.02233 0 0
lowerback 13.2647 3.83465 -7.65802
upperback -0.444525 3.84363 -0.261442
thorax -8.42545 2.17107 3.25705
lowerneck 0.70316 -12.5977 -12.4717
upperneck 3.38674 -17.2633 9.99002
head 2.89929 -8.64868 4.24977
lclavicle 1.0112e-14 -9.46692e-15 0
lhumerus -68.7745 -16.8203 103.25
lradius 102.11 0 0
lwrist 52.0926 0 0
lhand -7.38724 49.6081 0
lfingers 7.12502 0 0
lthumb 18.4411 78.0851 0
rclavicle 1.0112e-14 -9.46692e-15 0
rhumerus 41.961 -2.13153 -57.0567
rradius 23.9765 0 0
rwrist 17.4023 0 0
rhand -17.5354 -36.8085 0
rfingers 7.12502 0 0
rthumb 8.70999 -66.4917 0
1636
root -14.9541 14.5665 19.3896 699.001 -71.1282 380.587
lfemur 7.91527 -10.3188 -12.3148
ltibia 33.5402 0 0
lfoot -21.8476 28.2288 0
ltoes -43.4331 0 0
rfemur -52.1259 -14.6436 8.37297
rtibia 65.7754 0 0
rfoot -8.58519 9.57517 0
rtoes 2.07381 0 0
lowerback 13.2152 3.84371 -7.65916
upperback -0.477153 3.86053 -0.249995
thorax -8.43734 2.181 3.26619
lowerneck 0.798398 -12.6454 -12.504
upperneck 3.35448 -17.337 10.0448
head 2.88525 -8.68718 4.27318
lclavicle 1.32495e-14 -8.61531e-15 0
lhumerus -69.0751 -16.9149 103.374
lradius 102.275 0 0
lwrist 52.4007 0 0
lhand -8.99773 49.3107 0
lfingers 7.12502 0 0
lthumb 16.8972 77.9848 0
rclavicle 1.32495e-14 -8.61531e-15 0
rhumerus 42.4335 -2.33044 -57.0837
rradius 23.5318 0 0
rwrist 18.0423 0 0
rhand -17.4817 -36.4951 0
rfingers 7.12502 0 0
rthumb 8.76261 -66.1864 0
